<svg width="80" height="40" viewBox="0 0 80 40" fill="none" xmlns="http://www.w3.org/2000/svg">
<ellipse cx="17.2726" cy="13.5347" rx="6.28099" ry="8.31745" fill="#1B1D21"/>
<path d="M17.2727 28.4014C22.0015 28.4014 26.2613 29.0734 29.3211 30.145C30.8534 30.6816 32.0577 31.3091 32.8692 31.981C33.6839 32.6555 34.0455 33.3236 34.0455 33.9505C34.0455 34.5773 33.6839 35.2454 32.8692 35.9199C32.0577 36.5918 30.8534 37.2193 29.3211 37.7559C26.2613 38.8275 22.0015 39.4995 17.2727 39.4995C12.5439 39.4995 8.28418 38.8275 5.22433 37.7559C3.6921 37.2193 2.48776 36.5918 1.67625 35.9199C0.861587 35.2454 0.5 34.5773 0.5 33.9505C0.5 33.3236 0.861587 32.6555 1.67625 31.981C2.48776 31.3091 3.6921 30.6816 5.22433 30.145C8.28418 29.0734 12.5439 28.4014 17.2727 28.4014Z" fill="#1B1D21" stroke="#3F4144"/>
<mask id="path-3-inside-1_15_59" fill="white">
<path d="M0 33.9507H34.5455V39.9997H0V33.9507Z"/>
</mask>
<path d="M0 33.9507H34.5455V39.9997H0V33.9507Z" fill="#1B1D21"/>
<path d="M34.5455 39.9997V40.9997H35.5455V39.9997H34.5455ZM0 39.9997H-1V40.9997H0V39.9997ZM33.5455 33.9507V39.9997H35.5455V33.9507H33.5455ZM34.5455 38.9997H0V40.9997H34.5455V38.9997ZM1 39.9997V33.9507H-1V39.9997H1Z" fill="#3F4144" mask="url(#path-3-inside-1_15_59)"/>
<ellipse cx="62.7272" cy="13.5347" rx="6.28099" ry="8.31745" fill="#1B1D21"/>
<path d="M62.7272 28.4014C67.456 28.4014 71.7157 29.0734 74.7756 30.145C76.3078 30.6816 77.5122 31.3091 78.3237 31.981C79.1383 32.6555 79.4999 33.3236 79.4999 33.9505C79.4999 34.5773 79.1383 35.2454 78.3237 35.9199C77.5122 36.5918 76.3078 37.2193 74.7756 37.7559C71.7157 38.8275 67.456 39.4995 62.7272 39.4995C57.9984 39.4995 53.7386 38.8275 50.6788 37.7559C49.1466 37.2193 47.9422 36.5918 47.1307 35.9199C46.3161 35.2454 45.9545 34.5773 45.9545 33.9505C45.9545 33.3236 46.3161 32.6555 47.1307 31.981C47.9422 31.3091 49.1466 30.6816 50.6788 30.145C53.7386 29.0734 57.9984 28.4014 62.7272 28.4014Z" fill="#1B1D21" stroke="#3F4144"/>
<mask id="path-7-inside-2_15_59" fill="white">
<path d="M45.4545 33.9507H79.9999V39.9997H45.4545V33.9507Z"/>
</mask>
<path d="M45.4545 33.9507H79.9999V39.9997H45.4545V33.9507Z" fill="#1B1D21"/>
<path d="M79.9999 39.9997V40.9997H80.9999V39.9997H79.9999ZM45.4545 39.9997H44.4545V40.9997H45.4545V39.9997ZM78.9999 33.9507V39.9997H80.9999V33.9507H78.9999ZM79.9999 38.9997H45.4545V40.9997H79.9999V38.9997ZM46.4545 39.9997V33.9507H44.4545V39.9997H46.4545Z" fill="#3F4144" mask="url(#path-7-inside-2_15_59)"/>
<ellipse cx="40" cy="9.56507" rx="7.27273" ry="9.56507" fill="#1B1D21"/>
<path d="M40 27.0867C45.4416 27.0867 50.3254 27.8554 53.8136 29.0687C55.5624 29.6769 56.9062 30.3784 57.7931 31.1077C58.687 31.8428 59 32.5022 59 33.0431C59 33.584 58.687 34.2434 57.7931 34.9785C56.9062 35.7078 55.5624 36.4093 53.8136 37.0175C50.3254 38.2308 45.4416 38.9995 40 38.9995C34.5584 38.9995 29.6746 38.2308 26.1864 37.0175C24.4376 36.4093 23.0938 35.7078 22.2069 34.9785C21.313 34.2434 21 33.584 21 33.0431C21 32.5022 21.313 31.8428 22.2069 31.1077C23.0938 30.3784 24.4376 29.6769 26.1864 29.0687C29.6746 27.8554 34.5584 27.0867 40 27.0867Z" fill="#1B1D21" stroke="#3F4144" stroke-width="2"/>
<mask id="path-11-inside-3_15_59" fill="white">
<path d="M20 33.043H60V39.9994H20V33.043Z"/>
</mask>
<path d="M20 33.043H60V39.9994H20V33.043Z" fill="#1B1D21"/>
<path d="M60 39.9994V41.9994H62V39.9994H60ZM20 39.9994H18V41.9994H20V39.9994ZM58 33.043V39.9994H62V33.043H58ZM60 37.9994H20V41.9994H60V37.9994ZM22 39.9994V33.043H18V39.9994H22Z" fill="#3F4144" mask="url(#path-11-inside-3_15_59)"/>
</svg>
