<svg width="46" height="46" viewBox="0 0 46 46" fill="none" xmlns="http://www.w3.org/2000/svg">
<path d="M40.7777 23.0004C40.7777 32.8188 32.8183 40.7782 22.9999 40.7782C13.1816 40.7782 5.22217 32.8188 5.22217 23.0004C5.22217 13.182 13.1816 5.22266 22.9999 5.22266C32.8183 5.22266 40.7777 13.182 40.7777 23.0004ZM12.2016 23.0004C12.2016 28.9642 17.0362 33.7988 22.9999 33.7988C28.9637 33.7988 33.7983 28.9642 33.7983 23.0004C33.7983 17.0367 28.9637 12.2021 22.9999 12.2021C17.0362 12.2021 12.2016 17.0367 12.2016 23.0004Z" fill="#1B1D21"/>
<path d="M26 3V0H20V3H26ZM20 3V11.8889H26V3H20Z" fill="#1B1D21"/>
<path d="M26 43V46H20V43H26ZM20 43V34.1111H26V43H20Z" fill="#1B1D21"/>
<path d="M43 20H46V26H43V20ZM43 26H34.1111V20H43V26Z" fill="#1B1D21"/>
<path d="M3 20H0V26H3V20ZM3 26H11.8889V20H3V26Z" fill="#1B1D21"/>
<path d="M5.32302 11.7883L3.2017 9.66699L7.44434 5.42435L9.56566 7.54567L5.32302 11.7883ZM9.56566 7.54567L15.8511 13.8311L11.6084 18.0737L5.32302 11.7883L9.56566 7.54567Z" fill="#1B1D21"/>
<path d="M40.2956 11.7883L42.417 9.66699L38.1743 5.42435L36.053 7.54567L40.2956 11.7883ZM36.053 7.54567L29.7676 13.8311L34.0102 18.0737L40.2956 11.7883L36.053 7.54567Z" fill="#1B1D21"/>
<path d="M36.053 40.2951L38.1743 42.4165L42.417 38.1739L40.2957 36.0525L36.053 40.2951ZM40.2957 36.0525L34.0104 29.7671L29.7677 34.0096L36.053 40.2951L40.2957 36.0525Z" fill="#1B1D21"/>
<path d="M5.32302 36.0525L3.2017 38.1738L7.44434 42.4165L9.56566 40.2951L5.32302 36.0525ZM9.56566 40.2951L15.8511 34.0098L11.6084 29.7671L5.32302 36.0525L9.56566 40.2951Z" fill="#1B1D21"/>
</svg>
